<svg width="64" height="62" viewBox="0 0 64 62" fill="none" xmlns="http://www.w3.org/2000/svg">
<rect width="64" height="61.3147" rx="10" fill="#07BEB8"/>
<path d="M17.5497 29.4545H15.5753C15.5895 29.2865 15.58 29.1349 15.5469 29C15.5137 28.8651 15.4569 28.7491 15.3764 28.652C15.2959 28.5526 15.1906 28.4768 15.0604 28.4247C14.9302 28.3726 14.7751 28.3466 14.5952 28.3466C14.2495 28.3466 13.9406 28.433 13.6683 28.6058C13.3961 28.7763 13.17 29.0213 12.9901 29.3409C12.8101 29.6581 12.6823 30.0369 12.6065 30.4773C12.5402 30.9034 12.5379 31.2573 12.5994 31.5391C12.6634 31.8208 12.7876 32.0315 12.9723 32.1712C13.1593 32.3108 13.402 32.3807 13.7003 32.3807C13.8991 32.3807 14.0814 32.357 14.2472 32.3097C14.4152 32.2623 14.5644 32.1948 14.6946 32.1072C14.8272 32.0173 14.9396 31.9107 15.032 31.7876C15.1267 31.6622 15.1989 31.5237 15.2486 31.3722H17.2372C17.1615 31.6799 17.0265 31.9948 16.8324 32.3168C16.6383 32.6364 16.3873 32.9311 16.0795 33.201C15.7718 33.4685 15.4096 33.6851 14.9929 33.8509C14.5762 34.0166 14.1075 34.0994 13.5866 34.0994C12.9048 34.0994 12.3165 33.9503 11.8217 33.652C11.3293 33.3537 10.9718 32.9181 10.7493 32.3452C10.5291 31.7723 10.4853 31.0739 10.6179 30.25C10.7505 29.4545 11.0121 28.7881 11.4027 28.2507C11.7933 27.7133 12.268 27.3085 12.8267 27.0362C13.3854 26.764 13.9796 26.6278 14.6094 26.6278C15.0852 26.6278 15.5114 26.6906 15.8878 26.8161C16.2666 26.9415 16.585 27.125 16.843 27.3665C17.1035 27.6056 17.2952 27.9003 17.4183 28.2507C17.5414 28.6011 17.5852 29.0024 17.5497 29.4545ZM17.7282 34L18.6373 28.5455H20.5407L20.3702 29.5824H20.427C20.5904 29.1989 20.7952 28.9183 21.0414 28.7408C21.2876 28.5632 21.5563 28.4744 21.8475 28.4744C21.9327 28.4744 22.0144 28.4815 22.0925 28.4957C22.173 28.5076 22.2523 28.5241 22.3304 28.5455L22.0463 30.2216C21.954 30.1861 21.8392 30.1612 21.7019 30.147C21.5646 30.1304 21.4426 30.1222 21.3361 30.1222C21.1467 30.1222 20.9692 30.166 20.8034 30.2536C20.6401 30.3388 20.5004 30.4595 20.3844 30.6158C20.2708 30.7696 20.195 30.9508 20.1571 31.1591L19.6884 34H17.7282ZM22.0641 34L22.9732 28.5455H24.9334L24.0243 34H22.0641ZM24.0385 27.9773C23.7734 27.9773 23.5591 27.8897 23.3958 27.7145C23.2324 27.5369 23.1721 27.3262 23.2147 27.0824C23.2573 26.8338 23.3875 26.6231 23.6053 26.4503C23.8231 26.2751 24.0646 26.1875 24.3297 26.1875C24.5972 26.1875 24.8103 26.2751 24.9689 26.4503C25.1275 26.6231 25.1867 26.8338 25.1465 27.0824C25.1086 27.3262 24.9808 27.5369 24.763 27.7145C24.5475 27.8897 24.306 27.9773 24.0385 27.9773ZM29.185 28.5455L28.9435 29.9659H25.3498L25.5913 28.5455H29.185ZM26.5004 27.2386H28.4606L27.6296 32.2457C27.6178 32.3215 27.6201 32.3854 27.6367 32.4375C27.6533 32.4872 27.6864 32.5251 27.7362 32.5511C27.7882 32.5748 27.8569 32.5866 27.9421 32.5866C27.9989 32.5866 28.0688 32.5795 28.1516 32.5653C28.2345 32.5488 28.2972 32.5369 28.3398 32.5298L28.3967 33.9077C28.2972 33.9361 28.1635 33.968 27.9954 34.0036C27.8297 34.0414 27.6367 34.0663 27.4165 34.0781C26.9573 34.0994 26.5832 34.0509 26.2944 33.9325C26.0079 33.8142 25.8091 33.6295 25.6978 33.3786C25.5889 33.1252 25.57 32.8092 25.641 32.4304L26.5004 27.2386ZM32.5417 26.7273L31.5332 31.7273H29.9281L30.5673 26.7273H32.5417ZM30.411 34.1136C30.1341 34.1136 29.908 34.0178 29.7328 33.826C29.56 33.6319 29.4877 33.3963 29.5162 33.1193C29.5446 32.8494 29.6665 32.6186 29.8819 32.4268C30.0997 32.2351 30.3471 32.1392 30.6241 32.1392C30.8869 32.1392 31.1059 32.2351 31.2811 32.4268C31.4586 32.6186 31.5332 32.8494 31.5048 33.1193C31.4859 33.304 31.4208 33.4721 31.3095 33.6236C31.2006 33.7727 31.0656 33.8923 30.9047 33.9822C30.746 34.0698 30.5815 34.1136 30.411 34.1136ZM34.6049 32.7074L35.0027 30.3778H35.2583L36.8919 28.5455H39.0936L36.4089 31.4006H35.8549L34.6049 32.7074ZM32.6305 34L33.8379 26.7273H35.7981L34.5907 34H32.6305ZM35.997 34L35.1021 31.8409L36.622 30.4489L38.2413 34H35.997ZM42.8782 30.3636L42.6367 31.8409H39.2276L39.4691 30.3636H42.8782Z" fill="white"/>
<path d="M48.5 38L43 22L48.5 28.6133L54 22L48.5 38Z" fill="white"/>
<line y1="-0.75" x2="35.0822" y2="-0.75" transform="matrix(0.998697 -0.051029 0.055583 0.998454 10 39.7902)" stroke="white" stroke-width="1.5"/>
</svg>
