<svg xmlns="http://www.w3.org/2000/svg" width="64" height="62" fill="none"><rect width="64" height="61.315" fill="#07BEB8" rx="10"/><path fill="#fff" d="M17.55 29.454h-1.975c.014-.168.005-.32-.028-.454a.857.857 0 0 0-.17-.348.761.761 0 0 0-.317-.227 1.25 1.25 0 0 0-.465-.078c-.346 0-.654.086-.927.259-.272.17-.498.415-.678.735-.18.317-.308.696-.383 1.136-.067.426-.07.78-.008 1.062.064.282.189.492.373.632.187.14.43.21.728.21.2 0 .381-.024.547-.071.168-.048.317-.115.448-.203a1.4 1.4 0 0 0 .554-.735h1.988c-.075.308-.21.623-.405.945a3.755 3.755 0 0 1-1.84 1.534 3.778 3.778 0 0 1-1.405.248c-.682 0-1.27-.149-1.765-.447-.493-.298-.85-.734-1.073-1.307-.22-.573-.264-1.271-.131-2.095.133-.796.394-1.462.785-2 .39-.537.865-.942 1.424-1.214a4.018 4.018 0 0 1 1.782-.408c.476 0 .902.063 1.279.188.379.126.697.309.955.55.26.24.452.534.575.885.123.35.167.751.132 1.203ZM17.728 34l.91-5.454h1.903l-.17 1.036h.056c.163-.383.368-.664.614-.841a1.349 1.349 0 0 1 1.052-.245c.08.012.16.028.237.05l-.284 1.676a1.36 1.36 0 0 0-.344-.075 3.084 3.084 0 0 0-.366-.025c-.19 0-.367.044-.533.132a1.223 1.223 0 0 0-.419.362c-.113.154-.189.335-.227.543L19.688 34h-1.96Zm4.336 0 .91-5.454h1.96L24.023 34h-1.96Zm1.974-6.023a.838.838 0 0 1-.642-.262.707.707 0 0 1-.181-.633 1.01 1.01 0 0 1 .39-.632c.218-.175.46-.262.725-.262.267 0 .48.087.639.262a.718.718 0 0 1 .177.632 1.002 1.002 0 0 1-.383.633 1.12 1.12 0 0 1-.725.262Zm5.147.569-.241 1.42H25.35l.241-1.42h3.594ZM26.5 27.239h1.96l-.83 5.007a.422.422 0 0 0 .007.191c.016.05.05.088.1.114.051.024.12.036.205.036.057 0 .127-.008.21-.022l.188-.035.057 1.378c-.1.028-.233.06-.402.096a3.46 3.46 0 0 1-.579.074c-.459.021-.833-.027-1.122-.146-.286-.118-.485-.303-.596-.553-.11-.254-.128-.57-.057-.949l.86-5.191Zm6.042-.512-1.009 5h-1.605l.64-5h1.974Zm-2.131 7.387a.877.877 0 0 1-.678-.288.88.88 0 0 1-.217-.707c.029-.27.15-.5.366-.692.218-.192.465-.288.742-.288.263 0 .482.096.657.288a.844.844 0 0 1 .224.692 1.012 1.012 0 0 1-.195.505c-.11.149-.244.268-.405.358a1.008 1.008 0 0 1-.494.132Zm4.194-1.407.398-2.33h.255l1.634-1.831h2.202L36.409 31.4h-.554l-1.25 1.306ZM32.63 34l1.207-7.273h1.96L34.591 34h-1.96Zm3.366 0-.895-2.16 1.52-1.391L38.242 34h-2.245Zm6.881-3.636-.241 1.477h-3.41l.242-1.477h3.41ZM48.5 38 43 22l5.5 6.613L54 22l-5.5 16Z"/><path stroke="#fff" stroke-width="1.5" d="M0-.75h35.082" transform="matrix(.9987 -.05103 .05558 .99845 10 39.79)"/></svg>